<?xml version="1.0" encoding="utf-8"?>
<!-- Generator: Adobe Illustrator 21.1.0, SVG Export Plug-In . SVG Version: 6.00 Build 0)  -->
<svg version="1.1" id="Слой_4" xmlns="http://www.w3.org/2000/svg" xmlns:xlink="http://www.w3.org/1999/xlink" x="0px" y="0px"
	 viewBox="0 0 60 60" style="enable-background:new 0 0 60 60;" xml:space="preserve">
<g>
	<path d="M33.5,0.2l2.3,0.4l2.3,0.6l2.2,0.7l2.2,0.9l2.1,1.1l2,1.2l1.9,1.4L50.4,8L52,9.6l1.5,1.8l1.4,1.9l1.2,2l1.1,2.1l0.9,2.2
		l0.7,2.2l0.6,2.3l0.4,2.3l0.2,2.4v2.4l-0.2,2.4l-0.4,2.3l-0.6,2.3l-0.7,2.2l-0.9,2.2l-1.1,2.1l-1.2,2l-1.4,1.9L52,50.4L50.4,52
		l-1.8,1.5L46.7,55l-2,1.2l-2.1,1.1l-2.2,0.9l-2.2,0.7l-2.3,0.6l-2.3,0.4L31.2,60h-2.4l-2.4-0.2l-2.3-0.4l-2.3-0.6l-2.2-0.7
		l-2.2-0.9l-2.1-1.1l-2-1.2l-1.9-1.4L9.6,52L8,50.4l-1.5-1.8L5,46.7l-1.2-2l-1.1-2.1l-0.9-2.2l-0.7-2.2l-0.6-2.3l-0.4-2.3L0,31.2
		v-2.4l0.2-2.4l0.4-2.3l0.6-2.3l0.7-2.2l0.9-2.2l1.1-2.1l1.2-2l1.4-1.9L8,9.6L9.6,8l1.8-1.5L13.3,5l2-1.2l2.1-1.1l2.2-0.9l2.2-0.7
		l2.3-0.6l2.3-0.4L28.8,0h2.4L33.5,0.2z M28.6,38l1.9-6.9l5.7-2l0-4.8l-4.2,1.5L35,14H25l-4.2,15.7l-5.2,1.9l0,4.8l3.8-1.4L17,44h10
		v0h15.2l1.6-6H28.6z"/>
</g>
</svg>
